<svg width="209" height="132" viewBox="0 0 209 132" fill="none" xmlns="http://www.w3.org/2000/svg">
<g clip-path="url(#clip0_26_2592)">
<path d="M118.793 23.3894H90.2307C89.5798 23.3902 88.9558 23.6504 88.4956 24.113C88.0353 24.5756 87.7764 25.2028 87.7756 25.857V89.6629L87.4483 89.7633L80.4415 91.92C80.1094 92.0218 79.7507 91.987 79.4442 91.8232C79.1376 91.6594 78.9083 91.3801 78.8064 91.0465L57.9644 22.6178C57.8629 22.284 57.8975 21.9234 58.0605 21.6153C58.2234 21.3071 58.5015 21.0766 58.8335 20.9743L69.631 17.6512L100.933 8.02069L111.731 4.69755C111.895 4.64672 112.068 4.62896 112.239 4.64528C112.41 4.6616 112.576 4.71169 112.728 4.79268C112.88 4.87366 113.014 4.98396 113.124 5.11725C113.233 5.25054 113.316 5.40421 113.366 5.56946L118.693 23.0604L118.793 23.3894Z" fill="#F2F2F2"/>
<path d="M125.026 23.0604L118.605 1.97983C118.498 1.62859 118.324 1.30195 118.091 1.01857C117.859 0.735199 117.573 0.500644 117.25 0.328311C116.927 0.155978 116.574 0.0492435 116.21 0.0142109C115.847 -0.0208217 115.48 0.0165341 115.13 0.12414L99.9496 4.79463L68.649 14.4268L53.4684 19.0989C52.7632 19.3166 52.1727 19.8066 51.8266 20.4614C51.4804 21.1162 51.4069 21.8823 51.6221 22.5915L73.5673 94.6361C73.7422 95.2086 74.095 95.7097 74.5739 96.0659C75.0529 96.4221 75.6329 96.6146 76.2287 96.6152C76.5044 96.6153 76.7786 96.5737 77.0421 96.4918L87.4484 93.2904L87.7757 93.1884V92.8446L87.4484 92.9449L76.9455 96.1776C76.3231 96.3683 75.6507 96.3031 75.076 95.9962C74.5013 95.6894 74.0712 95.1659 73.88 94.5407L51.9365 22.4944C51.8417 22.1847 51.8087 21.8591 51.8393 21.5365C51.8699 21.2139 51.9635 20.9004 52.1148 20.6142C52.266 20.328 52.472 20.0746 52.7208 19.8685C52.9697 19.6624 53.2565 19.5077 53.565 19.4131L68.7455 14.741L100.046 5.11049L115.227 0.43836C115.461 0.3666 115.704 0.330011 115.949 0.329782C116.473 0.330967 116.984 0.501064 117.406 0.815161C117.828 1.12926 118.138 1.57085 118.292 2.07525L124.684 23.0604L124.785 23.3894H125.126L125.026 23.0604Z" fill="#3F3D56"/>
<path d="M71.5792 21.028C71.2638 21.0278 70.9567 20.926 70.703 20.7375C70.4494 20.549 70.2625 20.2837 70.1698 19.9806L68.0616 13.0593C68.005 12.8734 67.9853 12.6781 68.0038 12.4845C68.0222 12.291 68.0785 12.103 68.1692 11.9313C68.26 11.7596 68.3835 11.6075 68.5327 11.4838C68.682 11.36 68.854 11.2671 69.039 11.2102L97.8353 2.34895C98.2088 2.23438 98.6124 2.27345 98.9573 2.45761C99.3022 2.64176 99.5604 2.95595 99.6751 3.3312L101.783 10.2526C101.897 10.6281 101.858 11.0336 101.675 11.3803C101.492 11.727 101.179 11.9865 100.806 12.1018L72.0096 20.963C71.8701 21.0061 71.7251 21.028 71.5792 21.028Z" fill="#7052CC"/>
<path d="M82.6231 7.39565C84.4309 7.39565 85.8965 5.92257 85.8965 4.10542C85.8965 2.28827 84.4309 0.815186 82.6231 0.815186C80.8152 0.815186 79.3496 2.28827 79.3496 4.10542C79.3496 5.92257 80.8152 7.39565 82.6231 7.39565Z" fill="#7052CC"/>
<path d="M82.6226 6.18893C83.7674 6.18893 84.6955 5.25612 84.6955 4.10545C84.6955 2.95478 83.7674 2.02197 82.6226 2.02197C81.4778 2.02197 80.5498 2.95478 80.5498 4.10545C80.5498 5.25612 81.4778 6.18893 82.6226 6.18893Z" fill="white"/>
<path d="M150.135 95.7745H94.8136C94.4447 95.7741 94.0911 95.6266 93.8303 95.3645C93.5695 95.1023 93.4228 94.7469 93.4224 94.3762V27.7489C93.4228 27.3782 93.5695 27.0228 93.8303 26.7606C94.0911 26.4985 94.4447 26.351 94.8136 26.3506H150.135C150.504 26.351 150.857 26.4985 151.118 26.7606C151.379 27.0228 151.526 27.3782 151.526 27.7489V94.3762C151.526 94.7469 151.379 95.1023 151.118 95.3645C150.857 95.6266 150.504 95.7741 150.135 95.7745Z" fill="#E6E6E6"/>
<path d="M124.684 23.0603H90.2307C89.493 23.0614 88.7859 23.3563 88.2644 23.8806C87.7428 24.4049 87.4493 25.1156 87.4482 25.857V92.9449L87.7756 92.8445V25.857C87.7764 25.2028 88.0353 24.5756 88.4955 24.113C88.9558 23.6504 89.5798 23.3901 90.2307 23.3893H124.785L124.684 23.0603ZM154.717 23.0603H90.2307C89.493 23.0614 88.7859 23.3563 88.2644 23.8806C87.7428 24.4049 87.4493 25.1156 87.4482 25.857V101.203C87.4493 101.945 87.7428 102.656 88.2644 103.18C88.7859 103.704 89.493 103.999 90.2307 104H154.717C155.455 103.999 156.162 103.704 156.684 103.18C157.205 102.656 157.499 101.945 157.5 101.203V25.857C157.499 25.1156 157.205 24.4049 156.684 23.8806C156.162 23.3563 155.455 23.0614 154.717 23.0603ZM157.173 101.203C157.172 101.858 156.913 102.485 156.453 102.947C155.992 103.41 155.368 103.67 154.717 103.671H90.2307C89.5798 103.67 88.9558 103.41 88.4955 102.947C88.0353 102.485 87.7764 101.858 87.7756 101.203V25.857C87.7764 25.2028 88.0353 24.5756 88.4955 24.113C88.9558 23.6504 89.5798 23.3901 90.2307 23.3893H154.717C155.368 23.3901 155.992 23.6504 156.453 24.113C156.913 24.5756 157.172 25.2028 157.173 25.857V101.203Z" fill="#3F3D56"/>
<path d="M137.532 30.2988H107.416C107.026 30.2984 106.651 30.1423 106.375 29.8647C106.099 29.5871 105.944 29.2108 105.943 28.8182V21.5797C105.944 21.1872 106.099 20.8108 106.375 20.5333C106.651 20.2557 107.026 20.0996 107.416 20.0991H137.532C137.923 20.0996 138.297 20.2557 138.573 20.5333C138.849 20.8108 139.005 21.1872 139.005 21.5797V28.8182C139.005 29.2108 138.849 29.5871 138.573 29.8647C138.297 30.1423 137.923 30.2984 137.532 30.2988Z" fill="#7052CC"/>
<path d="M122.474 20.5927C124.282 20.5927 125.748 19.1196 125.748 17.3024C125.748 15.4853 124.282 14.0122 122.474 14.0122C120.666 14.0122 119.201 15.4853 119.201 17.3024C119.201 19.1196 120.666 20.5927 122.474 20.5927Z" fill="#7052CC"/>
<path d="M122.474 19.3065C123.575 19.3065 124.468 18.4092 124.468 17.3024C124.468 16.1956 123.575 15.2983 122.474 15.2983C121.373 15.2983 120.48 16.1956 120.48 17.3024C120.48 18.4092 121.373 19.3065 122.474 19.3065Z" fill="white"/>
</g>
<path d="M7.689 121.3V129H7.018L2.068 122.752V129H1.254V121.3H1.925L6.886 127.548V121.3H7.689ZM12.5184 123.17C13.2737 123.17 13.8531 123.361 14.2564 123.742C14.6597 124.116 14.8614 124.673 14.8614 125.414V129H14.1134V128.098C13.9374 128.399 13.6771 128.633 13.3324 128.802C12.9951 128.971 12.5917 129.055 12.1224 129.055C11.4771 129.055 10.9637 128.901 10.5824 128.593C10.2011 128.285 10.0104 127.878 10.0104 127.372C10.0104 126.881 10.1864 126.485 10.5384 126.184C10.8977 125.883 11.4661 125.733 12.2434 125.733H14.0804V125.381C14.0804 124.882 13.9411 124.505 13.6624 124.248C13.3837 123.984 12.9767 123.852 12.4414 123.852C12.0747 123.852 11.7227 123.914 11.3854 124.039C11.0481 124.156 10.7584 124.321 10.5164 124.534L10.1644 123.951C10.4577 123.702 10.8097 123.511 11.2204 123.379C11.6311 123.24 12.0637 123.17 12.5184 123.17ZM12.2434 128.439C12.6834 128.439 13.0611 128.34 13.3764 128.142C13.6917 127.937 13.9264 127.643 14.0804 127.262V126.316H12.2654C11.2754 126.316 10.7804 126.661 10.7804 127.35C10.7804 127.687 10.9087 127.955 11.1654 128.153C11.4221 128.344 11.7814 128.439 12.2434 128.439ZM13.2884 122.246C13.1197 122.246 12.9694 122.209 12.8374 122.136C12.7054 122.055 12.5624 121.945 12.4084 121.806C12.2764 121.696 12.1701 121.619 12.0894 121.575C12.0161 121.524 11.9354 121.498 11.8474 121.498C11.6787 121.498 11.5431 121.56 11.4404 121.685C11.3377 121.81 11.2827 121.982 11.2754 122.202H10.8024C10.8171 121.835 10.9124 121.542 11.0884 121.322C11.2644 121.102 11.4991 120.992 11.7924 120.992C11.9611 120.992 12.1077 121.029 12.2324 121.102C12.3644 121.175 12.5147 121.285 12.6834 121.432C12.8007 121.535 12.8997 121.612 12.9804 121.663C13.0611 121.714 13.1454 121.74 13.2334 121.74C13.3947 121.74 13.5267 121.681 13.6294 121.564C13.7321 121.439 13.7907 121.271 13.8054 121.058H14.2784C14.2637 121.417 14.1684 121.707 13.9924 121.927C13.8164 122.14 13.5817 122.246 13.2884 122.246ZM19.8263 129.055C19.269 129.055 18.7666 128.93 18.3193 128.681C17.872 128.424 17.52 128.072 17.2633 127.625C17.0066 127.178 16.8783 126.672 16.8783 126.107C16.8783 125.542 17.0066 125.036 17.2633 124.589C17.52 124.142 17.872 123.793 18.3193 123.544C18.7666 123.295 19.269 123.17 19.8263 123.17C20.3836 123.17 20.886 123.295 21.3333 123.544C21.7806 123.793 22.129 124.142 22.3783 124.589C22.635 125.036 22.7633 125.542 22.7633 126.107C22.7633 126.672 22.635 127.178 22.3783 127.625C22.129 128.072 21.7806 128.424 21.3333 128.681C20.886 128.93 20.3836 129.055 19.8263 129.055ZM19.8263 128.362C20.237 128.362 20.6036 128.27 20.9263 128.087C21.2563 127.896 21.513 127.629 21.6963 127.284C21.8796 126.939 21.9713 126.547 21.9713 126.107C21.9713 125.667 21.8796 125.275 21.6963 124.93C21.513 124.585 21.2563 124.321 20.9263 124.138C20.6036 123.947 20.237 123.852 19.8263 123.852C19.4156 123.852 19.0453 123.947 18.7153 124.138C18.3926 124.321 18.136 124.585 17.9453 124.93C17.762 125.275 17.6703 125.667 17.6703 126.107C17.6703 126.547 17.762 126.939 17.9453 127.284C18.136 127.629 18.3926 127.896 18.7153 128.087C19.0453 128.27 19.4156 128.362 19.8263 128.362ZM31.099 123.17C31.825 123.17 32.4006 123.383 32.826 123.808C33.2586 124.226 33.475 124.838 33.475 125.645V129H32.694V125.722C32.694 125.121 32.5436 124.662 32.243 124.347C31.9423 124.032 31.5133 123.874 30.956 123.874C30.3326 123.874 29.8376 124.061 29.471 124.435C29.1116 124.802 28.932 125.311 28.932 125.964V129H28.151V120.838H28.932V124.226C29.1446 123.889 29.438 123.628 29.812 123.445C30.186 123.262 30.615 123.17 31.099 123.17ZM38.0764 123.17C38.8318 123.17 39.4111 123.361 39.8144 123.742C40.2178 124.116 40.4194 124.673 40.4194 125.414V129H39.6714V128.098C39.4954 128.399 39.2351 128.633 38.8904 128.802C38.5531 128.971 38.1498 129.055 37.6804 129.055C37.0351 129.055 36.5218 128.901 36.1404 128.593C35.7591 128.285 35.5684 127.878 35.5684 127.372C35.5684 126.881 35.7444 126.485 36.0964 126.184C36.4558 125.883 37.0241 125.733 37.8014 125.733H39.6384V125.381C39.6384 124.882 39.4991 124.505 39.2204 124.248C38.9418 123.984 38.5348 123.852 37.9994 123.852C37.6328 123.852 37.2808 123.914 36.9434 124.039C36.6061 124.156 36.3164 124.321 36.0744 124.534L35.7224 123.951C36.0158 123.702 36.3678 123.511 36.7784 123.379C37.1891 123.24 37.6218 123.17 38.0764 123.17ZM37.8014 128.439C38.2414 128.439 38.6191 128.34 38.9344 128.142C39.2498 127.937 39.4844 127.643 39.6384 127.262V126.316H37.8234C36.8334 126.316 36.3384 126.661 36.3384 127.35C36.3384 127.687 36.4668 127.955 36.7234 128.153C36.9801 128.344 37.3394 128.439 37.8014 128.439ZM38.8904 120.948H39.9354L38.1534 122.312H37.3834L38.8904 120.948ZM49.2819 123.17C50.0079 123.17 50.5836 123.383 51.0089 123.808C51.4416 124.226 51.6579 124.838 51.6579 125.645V129H50.8769V125.722C50.8769 125.121 50.7266 124.662 50.4259 124.347C50.1253 124.032 49.6963 123.874 49.1389 123.874C48.5156 123.874 48.0206 124.061 47.6539 124.435C47.2946 124.802 47.1149 125.311 47.1149 125.964V129H46.3339V123.214H47.0819V124.281C47.2946 123.929 47.5879 123.658 47.9619 123.467C48.3433 123.269 48.7833 123.17 49.2819 123.17ZM59.2949 126.349H54.4549C54.4989 126.95 54.7299 127.438 55.1479 127.812C55.5659 128.179 56.0939 128.362 56.7319 128.362C57.0912 128.362 57.4212 128.3 57.7219 128.175C58.0226 128.043 58.2829 127.852 58.5029 127.603L58.9429 128.109C58.6862 128.417 58.3636 128.652 57.9749 128.813C57.5936 128.974 57.1719 129.055 56.7099 129.055C56.1159 129.055 55.5879 128.93 55.1259 128.681C54.6712 128.424 54.3156 128.072 54.0589 127.625C53.8022 127.178 53.6739 126.672 53.6739 126.107C53.6739 125.542 53.7949 125.036 54.0369 124.589C54.2862 124.142 54.6236 123.793 55.0489 123.544C55.4816 123.295 55.9656 123.17 56.5009 123.17C57.0362 123.17 57.5166 123.295 57.9419 123.544C58.3672 123.793 58.7009 124.142 58.9429 124.589C59.1849 125.029 59.3059 125.535 59.3059 126.107L59.2949 126.349ZM56.5009 123.841C55.9436 123.841 55.4742 124.021 55.0929 124.38C54.7189 124.732 54.5062 125.194 54.4549 125.766H58.5579C58.5066 125.194 58.2902 124.732 57.9089 124.38C57.5349 124.021 57.0656 123.841 56.5009 123.841ZM64.3007 123.17C65.0267 123.17 65.6024 123.383 66.0277 123.808C66.4604 124.226 66.6767 124.838 66.6767 125.645V129H65.8957V125.722C65.8957 125.121 65.7454 124.662 65.4447 124.347C65.144 124.032 64.715 123.874 64.1577 123.874C63.5344 123.874 63.0394 124.061 62.6727 124.435C62.3134 124.802 62.1337 125.311 62.1337 125.964V129H61.3527V123.214H62.1007V124.281C62.3134 123.929 62.6067 123.658 62.9807 123.467C63.362 123.269 63.802 123.17 64.3007 123.17ZM72.2022 123.17C72.9282 123.17 73.5038 123.383 73.9292 123.808C74.3618 124.226 74.5782 124.838 74.5782 125.645V129H73.7972V125.722C73.7972 125.121 73.6468 124.662 73.3462 124.347C73.0455 124.032 72.6165 123.874 72.0592 123.874C71.4358 123.874 70.9408 124.061 70.5742 124.435C70.2148 124.802 70.0352 125.311 70.0352 125.964V129H69.2542V120.838H70.0352V124.226C70.2478 123.889 70.5412 123.628 70.9152 123.445C71.2892 123.262 71.7182 123.17 72.2022 123.17ZM82.3697 123.214V129H81.6217V127.944C81.4163 128.296 81.134 128.571 80.7747 128.769C80.4153 128.96 80.0047 129.055 79.5427 129.055C78.7873 129.055 78.1897 128.846 77.7497 128.428C77.317 128.003 77.1007 127.383 77.1007 126.569V123.214H77.8817V126.492C77.8817 127.101 78.032 127.563 78.3327 127.878C78.6333 128.193 79.0623 128.351 79.6197 128.351C80.2283 128.351 80.7087 128.168 81.0607 127.801C81.4127 127.427 81.5887 126.91 81.5887 126.25V123.214H82.3697ZM92.2302 123.17C92.9562 123.17 93.5245 123.379 93.9352 123.797C94.3532 124.215 94.5622 124.831 94.5622 125.645V129H93.7812V125.722C93.7812 125.121 93.6345 124.662 93.3412 124.347C93.0552 124.032 92.6482 123.874 92.1202 123.874C91.5188 123.874 91.0458 124.061 90.7012 124.435C90.3565 124.802 90.1842 125.311 90.1842 125.964V129H89.4032V125.722C89.4032 125.121 89.2565 124.662 88.9632 124.347C88.6772 124.032 88.2665 123.874 87.7312 123.874C87.1372 123.874 86.6642 124.061 86.3122 124.435C85.9675 124.802 85.7952 125.311 85.7952 125.964V129H85.0142V123.214H85.7622V124.27C85.9675 123.918 86.2535 123.647 86.6202 123.456C86.9868 123.265 87.4085 123.17 87.8852 123.17C88.3692 123.17 88.7872 123.273 89.1392 123.478C89.4985 123.683 89.7662 123.988 89.9422 124.391C90.1548 124.01 90.4592 123.713 90.8552 123.5C91.2585 123.28 91.7168 123.17 92.2302 123.17ZM105.511 126.349H100.671C100.715 126.95 100.946 127.438 101.364 127.812C101.782 128.179 102.31 128.362 102.948 128.362C103.308 128.362 103.638 128.3 103.938 128.175C104.239 128.043 104.499 127.852 104.719 127.603L105.159 128.109C104.903 128.417 104.58 128.652 104.191 128.813C103.81 128.974 103.388 129.055 102.926 129.055C102.332 129.055 101.804 128.93 101.342 128.681C100.888 128.424 100.532 128.072 100.275 127.625C100.019 127.178 99.8904 126.672 99.8904 126.107C99.8904 125.542 100.011 125.036 100.253 124.589C100.503 124.142 100.84 123.793 101.265 123.544C101.698 123.295 102.182 123.17 102.717 123.17C103.253 123.17 103.733 123.295 104.158 123.544C104.584 123.793 104.917 124.142 105.159 124.589C105.401 125.029 105.522 125.535 105.522 126.107L105.511 126.349ZM102.717 123.841C102.16 123.841 101.691 124.021 101.309 124.38C100.935 124.732 100.723 125.194 100.671 125.766H104.774C104.723 125.194 104.507 124.732 104.125 124.38C103.751 124.021 103.282 123.841 102.717 123.841ZM112.324 123.214L109.75 129H108.947L106.384 123.214H107.198L109.365 128.142L111.554 123.214H112.324ZM118.758 126.349H113.918C113.962 126.95 114.193 127.438 114.611 127.812C115.029 128.179 115.557 128.362 116.195 128.362C116.554 128.362 116.884 128.3 117.185 128.175C117.485 128.043 117.746 127.852 117.966 127.603L118.406 128.109C118.149 128.417 117.826 128.652 117.438 128.813C117.056 128.974 116.635 129.055 116.173 129.055C115.579 129.055 115.051 128.93 114.589 128.681C114.134 128.424 113.778 128.072 113.522 127.625C113.265 127.178 113.137 126.672 113.137 126.107C113.137 125.542 113.258 125.036 113.5 124.589C113.749 124.142 114.086 123.793 114.512 123.544C114.944 123.295 115.428 123.17 115.964 123.17C116.499 123.17 116.979 123.295 117.405 123.544C117.83 123.793 118.164 124.142 118.406 124.589C118.648 125.029 118.769 125.535 118.769 126.107L118.758 126.349ZM115.964 123.841C115.406 123.841 114.937 124.021 114.556 124.38C114.182 124.732 113.969 125.194 113.918 125.766H118.021C117.969 125.194 117.753 124.732 117.372 124.38C116.998 124.021 116.528 123.841 115.964 123.841ZM123.764 123.17C124.49 123.17 125.065 123.383 125.491 123.808C125.923 124.226 126.14 124.838 126.14 125.645V129H125.359V125.722C125.359 125.121 125.208 124.662 124.908 124.347C124.607 124.032 124.178 123.874 123.621 123.874C122.997 123.874 122.502 124.061 122.136 124.435C121.776 124.802 121.597 125.311 121.597 125.964V129H120.816V123.214H121.564V124.281C121.776 123.929 122.07 123.658 122.444 123.467C122.825 123.269 123.265 123.17 123.764 123.17ZM131.764 128.648C131.617 128.78 131.434 128.883 131.214 128.956C131.001 129.022 130.778 129.055 130.543 129.055C130 129.055 129.582 128.908 129.289 128.615C128.996 128.322 128.849 127.907 128.849 127.372V123.874H127.815V123.214H128.849V121.949H129.63V123.214H131.39V123.874H129.63V127.328C129.63 127.673 129.714 127.937 129.883 128.12C130.059 128.296 130.308 128.384 130.631 128.384C130.792 128.384 130.946 128.358 131.093 128.307C131.247 128.256 131.379 128.182 131.489 128.087L131.764 128.648ZM135.804 129.055C135.246 129.055 134.744 128.93 134.297 128.681C133.849 128.424 133.497 128.072 133.241 127.625C132.984 127.178 132.856 126.672 132.856 126.107C132.856 125.542 132.984 125.036 133.241 124.589C133.497 124.142 133.849 123.793 134.297 123.544C134.744 123.295 135.246 123.17 135.804 123.17C136.361 123.17 136.863 123.295 137.311 123.544C137.758 123.793 138.106 124.142 138.356 124.589C138.612 125.036 138.741 125.542 138.741 126.107C138.741 126.672 138.612 127.178 138.356 127.625C138.106 128.072 137.758 128.424 137.311 128.681C136.863 128.93 136.361 129.055 135.804 129.055ZM135.804 128.362C136.214 128.362 136.581 128.27 136.904 128.087C137.234 127.896 137.49 127.629 137.674 127.284C137.857 126.939 137.949 126.547 137.949 126.107C137.949 125.667 137.857 125.275 137.674 124.93C137.49 124.585 137.234 124.321 136.904 124.138C136.581 123.947 136.214 123.852 135.804 123.852C135.393 123.852 135.023 123.947 134.693 124.138C134.37 124.321 134.113 124.585 133.923 124.93C133.739 125.275 133.648 125.667 133.648 126.107C133.648 126.547 133.739 126.939 133.923 127.284C134.113 127.629 134.37 127.896 134.693 128.087C135.023 128.27 135.393 128.362 135.804 128.362ZM146.526 129.055C145.954 129.055 145.441 128.93 144.986 128.681C144.539 128.432 144.187 128.083 143.93 127.636C143.674 127.181 143.545 126.672 143.545 126.107C143.545 125.542 143.674 125.036 143.93 124.589C144.187 124.142 144.539 123.793 144.986 123.544C145.441 123.295 145.954 123.17 146.526 123.17C147.025 123.17 147.469 123.269 147.857 123.467C148.253 123.658 148.565 123.94 148.792 124.314L148.209 124.71C148.019 124.424 147.777 124.211 147.483 124.072C147.19 123.925 146.871 123.852 146.526 123.852C146.108 123.852 145.731 123.947 145.393 124.138C145.063 124.321 144.803 124.585 144.612 124.93C144.429 125.275 144.337 125.667 144.337 126.107C144.337 126.554 144.429 126.95 144.612 127.295C144.803 127.632 145.063 127.896 145.393 128.087C145.731 128.27 146.108 128.362 146.526 128.362C146.871 128.362 147.19 128.292 147.483 128.153C147.777 128.014 148.019 127.801 148.209 127.515L148.792 127.911C148.565 128.285 148.253 128.571 147.857 128.769C147.461 128.96 147.018 129.055 146.526 129.055ZM152.808 123.17C153.563 123.17 154.143 123.361 154.546 123.742C154.949 124.116 155.151 124.673 155.151 125.414V129H154.403V128.098C154.227 128.399 153.967 128.633 153.622 128.802C153.285 128.971 152.881 129.055 152.412 129.055C151.767 129.055 151.253 128.901 150.872 128.593C150.491 128.285 150.3 127.878 150.3 127.372C150.3 126.881 150.476 126.485 150.828 126.184C151.187 125.883 151.756 125.733 152.533 125.733H154.37V125.381C154.37 124.882 154.231 124.505 153.952 124.248C153.673 123.984 153.266 123.852 152.731 123.852C152.364 123.852 152.012 123.914 151.675 124.039C151.338 124.156 151.048 124.321 150.806 124.534L150.454 123.951C150.747 123.702 151.099 123.511 151.51 123.379C151.921 123.24 152.353 123.17 152.808 123.17ZM152.533 128.439C152.973 128.439 153.351 128.34 153.666 128.142C153.981 127.937 154.216 127.643 154.37 127.262V126.316H152.555C151.565 126.316 151.07 126.661 151.07 127.35C151.07 127.687 151.198 127.955 151.455 128.153C151.712 128.344 152.071 128.439 152.533 128.439ZM163.031 120.838V129H162.283V127.856C162.048 128.245 161.736 128.542 161.348 128.747C160.966 128.952 160.534 129.055 160.05 129.055C159.507 129.055 159.016 128.93 158.576 128.681C158.136 128.432 157.791 128.083 157.542 127.636C157.292 127.189 157.168 126.679 157.168 126.107C157.168 125.535 157.292 125.025 157.542 124.578C157.791 124.131 158.136 123.786 158.576 123.544C159.016 123.295 159.507 123.17 160.05 123.17C160.519 123.17 160.941 123.269 161.315 123.467C161.696 123.658 162.008 123.94 162.25 124.314V120.838H163.031ZM160.116 128.362C160.519 128.362 160.882 128.27 161.205 128.087C161.535 127.896 161.791 127.629 161.975 127.284C162.165 126.939 162.261 126.547 162.261 126.107C162.261 125.667 162.165 125.275 161.975 124.93C161.791 124.585 161.535 124.321 161.205 124.138C160.882 123.947 160.519 123.852 160.116 123.852C159.705 123.852 159.335 123.947 159.005 124.138C158.682 124.321 158.425 124.585 158.235 124.93C158.051 125.275 157.96 125.667 157.96 126.107C157.96 126.547 158.051 126.939 158.235 127.284C158.425 127.629 158.682 127.896 159.005 128.087C159.335 128.27 159.705 128.362 160.116 128.362ZM167.687 123.17C168.442 123.17 169.022 123.361 169.425 123.742C169.828 124.116 170.03 124.673 170.03 125.414V129H169.282V128.098C169.106 128.399 168.846 128.633 168.501 128.802C168.164 128.971 167.76 129.055 167.291 129.055C166.646 129.055 166.132 128.901 165.751 128.593C165.37 128.285 165.179 127.878 165.179 127.372C165.179 126.881 165.355 126.485 165.707 126.184C166.066 125.883 166.635 125.733 167.412 125.733H169.249V125.381C169.249 124.882 169.11 124.505 168.831 124.248C168.552 123.984 168.145 123.852 167.61 123.852C167.243 123.852 166.891 123.914 166.554 124.039C166.217 124.156 165.927 124.321 165.685 124.534L165.333 123.951C165.626 123.702 165.978 123.511 166.389 123.379C166.8 123.24 167.232 123.17 167.687 123.17ZM167.412 128.439C167.852 128.439 168.23 128.34 168.545 128.142C168.86 127.937 169.095 127.643 169.249 127.262V126.316H167.434C166.444 126.316 165.949 126.661 165.949 127.35C165.949 127.687 166.077 127.955 166.334 128.153C166.591 128.344 166.95 128.439 167.412 128.439ZM174.159 129.055C173.69 129.055 173.239 128.989 172.806 128.857C172.381 128.718 172.047 128.545 171.805 128.34L172.157 127.724C172.399 127.915 172.704 128.072 173.07 128.197C173.437 128.314 173.818 128.373 174.214 128.373C174.742 128.373 175.131 128.292 175.38 128.131C175.637 127.962 175.765 127.728 175.765 127.427C175.765 127.214 175.696 127.049 175.556 126.932C175.417 126.807 175.241 126.716 175.028 126.657C174.816 126.591 174.533 126.529 174.181 126.47C173.712 126.382 173.334 126.294 173.048 126.206C172.762 126.111 172.517 125.953 172.311 125.733C172.113 125.513 172.014 125.209 172.014 124.82C172.014 124.336 172.216 123.94 172.619 123.632C173.023 123.324 173.584 123.17 174.302 123.17C174.676 123.17 175.05 123.221 175.424 123.324C175.798 123.419 176.106 123.548 176.348 123.709L176.007 124.336C175.531 124.006 174.962 123.841 174.302 123.841C173.804 123.841 173.426 123.929 173.169 124.105C172.92 124.281 172.795 124.512 172.795 124.798C172.795 125.018 172.865 125.194 173.004 125.326C173.151 125.458 173.331 125.557 173.543 125.623C173.756 125.682 174.049 125.744 174.423 125.81C174.885 125.898 175.256 125.986 175.534 126.074C175.813 126.162 176.051 126.312 176.249 126.525C176.447 126.738 176.546 127.031 176.546 127.405C176.546 127.911 176.334 128.314 175.908 128.615C175.49 128.908 174.907 129.055 174.159 129.055ZM181.494 128.648C181.348 128.78 181.164 128.883 180.944 128.956C180.732 129.022 180.508 129.055 180.273 129.055C179.731 129.055 179.313 128.908 179.019 128.615C178.726 128.322 178.579 127.907 178.579 127.372V123.874H177.545V123.214H178.579V121.949H179.36V123.214H181.12V123.874H179.36V127.328C179.36 127.673 179.445 127.937 179.613 128.12C179.789 128.296 180.039 128.384 180.361 128.384C180.523 128.384 180.677 128.358 180.823 128.307C180.977 128.256 181.109 128.182 181.219 128.087L181.494 128.648ZM184.121 124.347C184.305 123.958 184.576 123.665 184.935 123.467C185.302 123.269 185.753 123.17 186.288 123.17V123.929L186.101 123.918C185.493 123.918 185.016 124.105 184.671 124.479C184.327 124.853 184.154 125.377 184.154 126.052V129H183.373V123.214H184.121V124.347ZM190.173 123.17C190.928 123.17 191.507 123.361 191.911 123.742C192.314 124.116 192.516 124.673 192.516 125.414V129H191.768V128.098C191.592 128.399 191.331 128.633 190.987 128.802C190.649 128.971 190.246 129.055 189.777 129.055C189.131 129.055 188.618 128.901 188.237 128.593C187.855 128.285 187.665 127.878 187.665 127.372C187.665 126.881 187.841 126.485 188.193 126.184C188.552 125.883 189.12 125.733 189.898 125.733H191.735V125.381C191.735 124.882 191.595 124.505 191.317 124.248C191.038 123.984 190.631 123.852 190.096 123.852C189.729 123.852 189.377 123.914 189.04 124.039C188.702 124.156 188.413 124.321 188.171 124.534L187.819 123.951C188.112 123.702 188.464 123.511 188.875 123.379C189.285 123.24 189.718 123.17 190.173 123.17ZM189.898 128.439C190.338 128.439 190.715 128.34 191.031 128.142C191.346 127.937 191.581 127.643 191.735 127.262V126.316H189.92C188.93 126.316 188.435 126.661 188.435 127.35C188.435 127.687 188.563 127.955 188.82 128.153C189.076 128.344 189.436 128.439 189.898 128.439ZM200.396 120.838V129H199.648V127.856C199.413 128.245 199.101 128.542 198.713 128.747C198.331 128.952 197.899 129.055 197.415 129.055C196.872 129.055 196.381 128.93 195.941 128.681C195.501 128.432 195.156 128.083 194.907 127.636C194.657 127.189 194.533 126.679 194.533 126.107C194.533 125.535 194.657 125.025 194.907 124.578C195.156 124.131 195.501 123.786 195.941 123.544C196.381 123.295 196.872 123.17 197.415 123.17C197.884 123.17 198.306 123.269 198.68 123.467C199.061 123.658 199.373 123.94 199.615 124.314V120.838H200.396ZM197.481 128.362C197.884 128.362 198.247 128.27 198.57 128.087C198.9 127.896 199.156 127.629 199.34 127.284C199.53 126.939 199.626 126.547 199.626 126.107C199.626 125.667 199.53 125.275 199.34 124.93C199.156 124.585 198.9 124.321 198.57 124.138C198.247 123.947 197.884 123.852 197.481 123.852C197.07 123.852 196.7 123.947 196.37 124.138C196.047 124.321 195.79 124.585 195.6 124.93C195.416 125.275 195.325 125.667 195.325 126.107C195.325 126.547 195.416 126.939 195.6 127.284C195.79 127.629 196.047 127.896 196.37 128.087C196.7 128.27 197.07 128.362 197.481 128.362ZM205.393 129.055C204.836 129.055 204.333 128.93 203.886 128.681C203.439 128.424 203.087 128.072 202.83 127.625C202.573 127.178 202.445 126.672 202.445 126.107C202.445 125.542 202.573 125.036 202.83 124.589C203.087 124.142 203.439 123.793 203.886 123.544C204.333 123.295 204.836 123.17 205.393 123.17C205.95 123.17 206.453 123.295 206.9 123.544C207.347 123.793 207.696 124.142 207.945 124.589C208.202 125.036 208.33 125.542 208.33 126.107C208.33 126.672 208.202 127.178 207.945 127.625C207.696 128.072 207.347 128.424 206.9 128.681C206.453 128.93 205.95 129.055 205.393 129.055ZM205.393 128.362C205.804 128.362 206.17 128.27 206.493 128.087C206.823 127.896 207.08 127.629 207.263 127.284C207.446 126.939 207.538 126.547 207.538 126.107C207.538 125.667 207.446 125.275 207.263 124.93C207.08 124.585 206.823 124.321 206.493 124.138C206.17 123.947 205.804 123.852 205.393 123.852C204.982 123.852 204.612 123.947 204.282 124.138C203.959 124.321 203.703 124.585 203.512 124.93C203.329 125.275 203.237 125.667 203.237 126.107C203.237 126.547 203.329 126.939 203.512 127.284C203.703 127.629 203.959 127.896 204.282 128.087C204.612 128.27 204.982 128.362 205.393 128.362Z" fill="#2E3033"/>
<defs>
<clipPath id="clip0_26_2592">
<rect width="106" height="104" fill="white" transform="translate(51.5)"/>
</clipPath>
</defs>
</svg>
