<svg width="222" height="132" viewBox="0 0 222 132" fill="none" xmlns="http://www.w3.org/2000/svg">
<g clip-path="url(#clip0_16_1031)">
<path d="M125.293 23.3894H96.7307C96.0798 23.3902 95.4558 23.6504 94.9956 24.113C94.5353 24.5756 94.2764 25.2028 94.2756 25.857V89.6629L93.9483 89.7633L86.9415 91.92C86.6094 92.0218 86.2507 91.987 85.9442 91.8232C85.6376 91.6594 85.4083 91.3801 85.3064 91.0465L64.4644 22.6178C64.3629 22.284 64.3975 21.9234 64.5605 21.6153C64.7234 21.3071 65.0015 21.0766 65.3335 20.9743L76.131 17.6512L107.433 8.02069L118.231 4.69755C118.395 4.64672 118.568 4.62896 118.739 4.64528C118.91 4.6616 119.076 4.71169 119.228 4.79268C119.38 4.87366 119.514 4.98396 119.624 5.11725C119.733 5.25054 119.816 5.40421 119.866 5.56946L125.193 23.0604L125.293 23.3894Z" fill="#F2F2F2"/>
<path d="M131.526 23.0604L125.105 1.97983C124.998 1.62859 124.824 1.30195 124.591 1.01857C124.359 0.735199 124.073 0.500644 123.75 0.328311C123.427 0.155978 123.074 0.0492435 122.71 0.0142109C122.347 -0.0208217 121.98 0.0165341 121.63 0.12414L106.45 4.79463L75.149 14.4268L59.9684 19.0989C59.2632 19.3166 58.6727 19.8066 58.3266 20.4614C57.9804 21.1162 57.9069 21.8823 58.1221 22.5915L80.0673 94.6361C80.2422 95.2086 80.595 95.7097 81.0739 96.0659C81.5529 96.4221 82.1329 96.6146 82.7287 96.6152C83.0044 96.6153 83.2786 96.5737 83.5421 96.4918L93.9484 93.2904L94.2757 93.1884V92.8446L93.9484 92.9449L83.4455 96.1776C82.8231 96.3683 82.1507 96.3031 81.576 95.9962C81.0013 95.6894 80.5712 95.1659 80.38 94.5407L58.4365 22.4944C58.3417 22.1847 58.3087 21.8591 58.3393 21.5365C58.3699 21.2139 58.4635 20.9004 58.6148 20.6142C58.766 20.328 58.972 20.0746 59.2208 19.8685C59.4697 19.6624 59.7565 19.5077 60.065 19.4131L75.2455 14.741L106.546 5.11049L121.727 0.43836C121.961 0.3666 122.204 0.330011 122.449 0.329782C122.973 0.330967 123.484 0.501064 123.906 0.815161C124.328 1.12926 124.638 1.57085 124.792 2.07525L131.184 23.0604L131.285 23.3894H131.626L131.526 23.0604Z" fill="#3F3D56"/>
<path d="M78.0792 21.028C77.7638 21.0278 77.4567 20.926 77.203 20.7375C76.9494 20.549 76.7625 20.2837 76.6698 19.9806L74.5616 13.0593C74.505 12.8734 74.4853 12.6781 74.5038 12.4845C74.5222 12.291 74.5785 12.103 74.6692 11.9313C74.76 11.7596 74.8835 11.6075 75.0327 11.4838C75.182 11.36 75.354 11.2671 75.539 11.2102L104.335 2.34895C104.709 2.23438 105.112 2.27345 105.457 2.45761C105.802 2.64176 106.06 2.95595 106.175 3.3312L108.283 10.2526C108.397 10.6281 108.358 11.0336 108.175 11.3803C107.992 11.727 107.679 11.9865 107.306 12.1018L78.5096 20.963C78.3701 21.0061 78.2251 21.028 78.0792 21.028Z" fill="#7052CC"/>
<path d="M89.1231 7.39565C90.9309 7.39565 92.3965 5.92257 92.3965 4.10542C92.3965 2.28827 90.9309 0.815186 89.1231 0.815186C87.3152 0.815186 85.8496 2.28827 85.8496 4.10542C85.8496 5.92257 87.3152 7.39565 89.1231 7.39565Z" fill="#7052CC"/>
<path d="M89.1226 6.18893C90.2674 6.18893 91.1955 5.25612 91.1955 4.10545C91.1955 2.95478 90.2674 2.02197 89.1226 2.02197C87.9778 2.02197 87.0498 2.95478 87.0498 4.10545C87.0498 5.25612 87.9778 6.18893 89.1226 6.18893Z" fill="white"/>
<path d="M156.635 95.7745H101.314C100.945 95.7741 100.591 95.6266 100.33 95.3645C100.069 95.1023 99.9228 94.7469 99.9224 94.3762V27.7489C99.9228 27.3782 100.069 27.0228 100.33 26.7606C100.591 26.4985 100.945 26.351 101.314 26.3506H156.635C157.004 26.351 157.357 26.4985 157.618 26.7606C157.879 27.0228 158.026 27.3782 158.026 27.7489V94.3762C158.026 94.7469 157.879 95.1023 157.618 95.3645C157.357 95.6266 157.004 95.7741 156.635 95.7745Z" fill="#E6E6E6"/>
<path d="M131.184 23.0603H96.7307C95.993 23.0614 95.2859 23.3563 94.7644 23.8806C94.2428 24.4049 93.9493 25.1156 93.9482 25.857V92.9449L94.2756 92.8445V25.857C94.2764 25.2028 94.5353 24.5756 94.9955 24.113C95.4558 23.6504 96.0798 23.3901 96.7307 23.3893H131.285L131.184 23.0603ZM161.217 23.0603H96.7307C95.993 23.0614 95.2859 23.3563 94.7644 23.8806C94.2428 24.4049 93.9493 25.1156 93.9482 25.857V101.203C93.9493 101.945 94.2428 102.656 94.7644 103.18C95.2859 103.704 95.993 103.999 96.7307 104H161.217C161.955 103.999 162.662 103.704 163.184 103.18C163.705 102.656 163.999 101.945 164 101.203V25.857C163.999 25.1156 163.705 24.4049 163.184 23.8806C162.662 23.3563 161.955 23.0614 161.217 23.0603ZM163.673 101.203C163.672 101.858 163.413 102.485 162.953 102.947C162.492 103.41 161.868 103.67 161.217 103.671H96.7307C96.0798 103.67 95.4558 103.41 94.9955 102.947C94.5353 102.485 94.2764 101.858 94.2756 101.203V25.857C94.2764 25.2028 94.5353 24.5756 94.9955 24.113C95.4558 23.6504 96.0798 23.3901 96.7307 23.3893H161.217C161.868 23.3901 162.492 23.6504 162.953 24.113C163.413 24.5756 163.672 25.2028 163.673 25.857V101.203Z" fill="#3F3D56"/>
<path d="M144.032 30.2988H113.916C113.526 30.2984 113.151 30.1423 112.875 29.8647C112.599 29.5871 112.444 29.2108 112.443 28.8182V21.5797C112.444 21.1872 112.599 20.8108 112.875 20.5333C113.151 20.2557 113.526 20.0996 113.916 20.0991H144.032C144.423 20.0996 144.797 20.2557 145.073 20.5333C145.349 20.8108 145.505 21.1872 145.505 21.5797V28.8182C145.505 29.2108 145.349 29.5871 145.073 29.8647C144.797 30.1423 144.423 30.2984 144.032 30.2988Z" fill="#7052CC"/>
<path d="M128.974 20.5927C130.782 20.5927 132.248 19.1196 132.248 17.3024C132.248 15.4853 130.782 14.0122 128.974 14.0122C127.166 14.0122 125.701 15.4853 125.701 17.3024C125.701 19.1196 127.166 20.5927 128.974 20.5927Z" fill="#7052CC"/>
<path d="M128.974 19.3065C130.075 19.3065 130.968 18.4092 130.968 17.3024C130.968 16.1956 130.075 15.2983 128.974 15.2983C127.873 15.2983 126.98 16.1956 126.98 17.3024C126.98 18.4092 127.873 19.3065 128.974 19.3065Z" fill="white"/>
</g>
<path d="M7.656 121.3L4.246 129H3.443L0.033 121.3H0.913L3.861 127.988L6.831 121.3H7.656ZM10.9902 129.055C10.4329 129.055 9.93058 128.93 9.48324 128.681C9.03591 128.424 8.68391 128.072 8.42724 127.625C8.17058 127.178 8.04224 126.672 8.04224 126.107C8.04224 125.542 8.17058 125.036 8.42724 124.589C8.68391 124.142 9.03591 123.793 9.48324 123.544C9.93058 123.295 10.4329 123.17 10.9902 123.17C11.5476 123.17 12.0499 123.295 12.4972 123.544C12.9446 123.793 13.2929 124.142 13.5422 124.589C13.7989 125.036 13.9272 125.542 13.9272 126.107C13.9272 126.672 13.7989 127.178 13.5422 127.625C13.2929 128.072 12.9446 128.424 12.4972 128.681C12.0499 128.93 11.5476 129.055 10.9902 129.055ZM10.9902 128.362C11.4009 128.362 11.7676 128.27 12.0902 128.087C12.4202 127.896 12.6769 127.629 12.8602 127.284C13.0436 126.939 13.1352 126.547 13.1352 126.107C13.1352 125.667 13.0436 125.275 12.8602 124.93C12.6769 124.585 12.4202 124.321 12.0902 124.138C11.7676 123.947 11.4009 123.852 10.9902 123.852C10.5796 123.852 10.2092 123.947 9.87924 124.138C9.55658 124.321 9.29991 124.585 9.10924 124.93C8.92591 125.275 8.83424 125.667 8.83424 126.107C8.83424 126.547 8.92591 126.939 9.10924 127.284C9.29991 127.629 9.55658 127.896 9.87924 128.087C10.2092 128.27 10.5796 128.362 10.9902 128.362ZM18.3769 129.055C17.8049 129.055 17.2915 128.93 16.8369 128.681C16.3895 128.432 16.0375 128.083 15.7809 127.636C15.5242 127.181 15.3959 126.672 15.3959 126.107C15.3959 125.542 15.5242 125.036 15.7809 124.589C16.0375 124.142 16.3895 123.793 16.8369 123.544C17.2915 123.295 17.8049 123.17 18.3769 123.17C18.8755 123.17 19.3192 123.269 19.7079 123.467C20.1039 123.658 20.4155 123.94 20.6429 124.314L20.0599 124.71C19.8692 124.424 19.6272 124.211 19.3339 124.072C19.0405 123.925 18.7215 123.852 18.3769 123.852C17.9589 123.852 17.5812 123.947 17.2439 124.138C16.9139 124.321 16.6535 124.585 16.4629 124.93C16.2795 125.275 16.1879 125.667 16.1879 126.107C16.1879 126.554 16.2795 126.95 16.4629 127.295C16.6535 127.632 16.9139 127.896 17.2439 128.087C17.5812 128.27 17.9589 128.362 18.3769 128.362C18.7215 128.362 19.0405 128.292 19.3339 128.153C19.6272 128.014 19.8692 127.801 20.0599 127.515L20.6429 127.911C20.4155 128.285 20.1039 128.571 19.7079 128.769C19.3119 128.96 18.8682 129.055 18.3769 129.055ZM27.5756 126.349H22.7356C22.7796 126.95 23.0106 127.438 23.4286 127.812C23.8466 128.179 24.3746 128.362 25.0126 128.362C25.3719 128.362 25.7019 128.3 26.0026 128.175C26.3032 128.043 26.5636 127.852 26.7836 127.603L27.2236 128.109C26.9669 128.417 26.6442 128.652 26.2556 128.813C25.8742 128.974 25.4526 129.055 24.9906 129.055C24.3966 129.055 23.8686 128.93 23.4066 128.681C22.9519 128.424 22.5962 128.072 22.3396 127.625C22.0829 127.178 21.9546 126.672 21.9546 126.107C21.9546 125.542 22.0756 125.036 22.3176 124.589C22.5669 124.142 22.9042 123.793 23.3296 123.544C23.7622 123.295 24.2462 123.17 24.7816 123.17C25.3169 123.17 25.7972 123.295 26.2226 123.544C26.6479 123.793 26.9816 124.142 27.2236 124.589C27.4656 125.029 27.5866 125.535 27.5866 126.107L27.5756 126.349ZM24.7816 123.841C24.2242 123.841 23.7549 124.021 23.3736 124.38C22.9996 124.732 22.7869 125.194 22.7356 125.766H26.8386C26.7872 125.194 26.5709 124.732 26.1896 124.38C25.8156 124.021 25.3462 123.841 24.7816 123.841ZM25.8706 122.312L24.7816 121.399L23.6926 122.312H22.9666L24.3856 120.948H25.1776L26.5966 122.312H25.8706ZM34.9934 123.17C35.7488 123.17 36.3281 123.361 36.7314 123.742C37.1348 124.116 37.3364 124.673 37.3364 125.414V129H36.5884V128.098C36.4124 128.399 36.1521 128.633 35.8074 128.802C35.4701 128.971 35.0668 129.055 34.5974 129.055C33.9521 129.055 33.4388 128.901 33.0574 128.593C32.6761 128.285 32.4854 127.878 32.4854 127.372C32.4854 126.881 32.6614 126.485 33.0134 126.184C33.3728 125.883 33.9411 125.733 34.7184 125.733H36.5554V125.381C36.5554 124.882 36.4161 124.505 36.1374 124.248C35.8588 123.984 35.4518 123.852 34.9164 123.852C34.5498 123.852 34.1978 123.914 33.8604 124.039C33.5231 124.156 33.2334 124.321 32.9914 124.534L32.6394 123.951C32.9328 123.702 33.2848 123.511 33.6954 123.379C34.1061 123.24 34.5388 123.17 34.9934 123.17ZM34.7184 128.439C35.1584 128.439 35.5361 128.34 35.8514 128.142C36.1668 127.937 36.4014 127.643 36.5554 127.262V126.316H34.7404C33.7504 126.316 33.2554 126.661 33.2554 127.35C33.2554 127.687 33.3838 127.955 33.6404 128.153C33.8971 128.344 34.2564 128.439 34.7184 128.439ZM39.9149 123.214H40.6959V129H39.9149V123.214ZM40.3109 121.949C40.1495 121.949 40.0139 121.894 39.9039 121.784C39.7939 121.674 39.7389 121.542 39.7389 121.388C39.7389 121.241 39.7939 121.113 39.9039 121.003C40.0139 120.893 40.1495 120.838 40.3109 120.838C40.4722 120.838 40.6079 120.893 40.7179 121.003C40.8279 121.106 40.8829 121.23 40.8829 121.377C40.8829 121.538 40.8279 121.674 40.7179 121.784C40.6079 121.894 40.4722 121.949 40.3109 121.949ZM46.2741 123.17C47.0001 123.17 47.5758 123.383 48.0011 123.808C48.4338 124.226 48.6501 124.838 48.6501 125.645V129H47.8691V125.722C47.8691 125.121 47.7188 124.662 47.4181 124.347C47.1174 124.032 46.6884 123.874 46.1311 123.874C45.5078 123.874 45.0128 124.061 44.6461 124.435C44.2868 124.802 44.1071 125.311 44.1071 125.964V129H43.3261V123.214H44.0741V124.281C44.2868 123.929 44.5801 123.658 44.9541 123.467C45.3354 123.269 45.7754 123.17 46.2741 123.17ZM56.5291 120.838V129H55.7811V127.856C55.5464 128.245 55.2347 128.542 54.8461 128.747C54.4647 128.952 54.0321 129.055 53.5481 129.055C53.0054 129.055 52.5141 128.93 52.0741 128.681C51.6341 128.432 51.2894 128.083 51.0401 127.636C50.7907 127.189 50.6661 126.679 50.6661 126.107C50.6661 125.535 50.7907 125.025 51.0401 124.578C51.2894 124.131 51.6341 123.786 52.0741 123.544C52.5141 123.295 53.0054 123.17 53.5481 123.17C54.0174 123.17 54.4391 123.269 54.8131 123.467C55.1944 123.658 55.5061 123.94 55.7481 124.314V120.838H56.5291ZM53.6141 128.362C54.0174 128.362 54.3804 128.27 54.7031 128.087C55.0331 127.896 55.2897 127.629 55.4731 127.284C55.6637 126.939 55.7591 126.547 55.7591 126.107C55.7591 125.667 55.6637 125.275 55.4731 124.93C55.2897 124.585 55.0331 124.321 54.7031 124.138C54.3804 123.947 54.0174 123.852 53.6141 123.852C53.2034 123.852 52.8331 123.947 52.5031 124.138C52.1804 124.321 51.9237 124.585 51.7331 124.93C51.5497 125.275 51.4581 125.667 51.4581 126.107C51.4581 126.547 51.5497 126.939 51.7331 127.284C51.9237 127.629 52.1804 127.896 52.5031 128.087C52.8331 128.27 53.2034 128.362 53.6141 128.362ZM61.1853 123.17C61.9406 123.17 62.52 123.361 62.9233 123.742C63.3266 124.116 63.5283 124.673 63.5283 125.414V129H62.7803V128.098C62.6043 128.399 62.344 128.633 61.9993 128.802C61.662 128.971 61.2586 129.055 60.7893 129.055C60.144 129.055 59.6306 128.901 59.2493 128.593C58.868 128.285 58.6773 127.878 58.6773 127.372C58.6773 126.881 58.8533 126.485 59.2053 126.184C59.5646 125.883 60.133 125.733 60.9103 125.733H62.7473V125.381C62.7473 124.882 62.608 124.505 62.3293 124.248C62.0506 123.984 61.6436 123.852 61.1083 123.852C60.7416 123.852 60.3896 123.914 60.0523 124.039C59.715 124.156 59.4253 124.321 59.1833 124.534L58.8313 123.951C59.1246 123.702 59.4766 123.511 59.8873 123.379C60.298 123.24 60.7306 123.17 61.1853 123.17ZM60.9103 128.439C61.3503 128.439 61.728 128.34 62.0433 128.142C62.3586 127.937 62.5933 127.643 62.7473 127.262V126.316H60.9323C59.9423 126.316 59.4473 126.661 59.4473 127.35C59.4473 127.687 59.5756 127.955 59.8323 128.153C60.089 128.344 60.4483 128.439 60.9103 128.439ZM72.3908 123.17C73.1168 123.17 73.6924 123.383 74.1178 123.808C74.5504 124.226 74.7668 124.838 74.7668 125.645V129H73.9858V125.722C73.9858 125.121 73.8354 124.662 73.5348 124.347C73.2341 124.032 72.8051 123.874 72.2478 123.874C71.6244 123.874 71.1294 124.061 70.7628 124.435C70.4034 124.802 70.2238 125.311 70.2238 125.964V129H69.4428V123.214H70.1908V124.281C70.4034 123.929 70.6968 123.658 71.0708 123.467C71.4521 123.269 71.8921 123.17 72.3908 123.17ZM79.3682 123.17C80.1236 123.17 80.7029 123.361 81.1062 123.742C81.5096 124.116 81.7112 124.673 81.7112 125.414V129H80.9632V128.098C80.7872 128.399 80.5269 128.633 80.1822 128.802C79.8449 128.971 79.4416 129.055 78.9722 129.055C78.3269 129.055 77.8136 128.901 77.4322 128.593C77.0509 128.285 76.8602 127.878 76.8602 127.372C76.8602 126.881 77.0362 126.485 77.3882 126.184C77.7476 125.883 78.3159 125.733 79.0932 125.733H80.9302V125.381C80.9302 124.882 80.7909 124.505 80.5122 124.248C80.2336 123.984 79.8266 123.852 79.2912 123.852C78.9246 123.852 78.5726 123.914 78.2352 124.039C77.8979 124.156 77.6082 124.321 77.3662 124.534L77.0142 123.951C77.3076 123.702 77.6596 123.511 78.0702 123.379C78.4809 123.24 78.9136 123.17 79.3682 123.17ZM79.0932 128.439C79.5332 128.439 79.9109 128.34 80.2262 128.142C80.5416 127.937 80.7762 127.643 80.9302 127.262V126.316H79.1152C78.1252 126.316 77.6302 126.661 77.6302 127.35C77.6302 127.687 77.7586 127.955 78.0152 128.153C78.2719 128.344 78.6312 128.439 79.0932 128.439ZM80.1382 122.246C79.9696 122.246 79.8192 122.209 79.6872 122.136C79.5552 122.055 79.4122 121.945 79.2582 121.806C79.1262 121.696 79.0199 121.619 78.9392 121.575C78.8659 121.524 78.7852 121.498 78.6972 121.498C78.5286 121.498 78.3929 121.56 78.2902 121.685C78.1876 121.81 78.1326 121.982 78.1252 122.202H77.6522C77.6669 121.835 77.7622 121.542 77.9382 121.322C78.1142 121.102 78.3489 120.992 78.6422 120.992C78.8109 120.992 78.9576 121.029 79.0822 121.102C79.2142 121.175 79.3646 121.285 79.5332 121.432C79.6506 121.535 79.7496 121.612 79.8302 121.663C79.9109 121.714 79.9952 121.74 80.0832 121.74C80.2446 121.74 80.3766 121.681 80.4792 121.564C80.5819 121.439 80.6406 121.271 80.6552 121.058H81.1282C81.1136 121.417 81.0182 121.707 80.8422 121.927C80.6662 122.14 80.4316 122.246 80.1382 122.246ZM86.6762 129.055C86.1188 129.055 85.6165 128.93 85.1692 128.681C84.7218 128.424 84.3698 128.072 84.1132 127.625C83.8565 127.178 83.7282 126.672 83.7282 126.107C83.7282 125.542 83.8565 125.036 84.1132 124.589C84.3698 124.142 84.7218 123.793 85.1692 123.544C85.6165 123.295 86.1188 123.17 86.6762 123.17C87.2335 123.17 87.7358 123.295 88.1832 123.544C88.6305 123.793 88.9788 124.142 89.2282 124.589C89.4848 125.036 89.6132 125.542 89.6132 126.107C89.6132 126.672 89.4848 127.178 89.2282 127.625C88.9788 128.072 88.6305 128.424 88.1832 128.681C87.7358 128.93 87.2335 129.055 86.6762 129.055ZM86.6762 128.362C87.0868 128.362 87.4535 128.27 87.7762 128.087C88.1062 127.896 88.3628 127.629 88.5462 127.284C88.7295 126.939 88.8212 126.547 88.8212 126.107C88.8212 125.667 88.7295 125.275 88.5462 124.93C88.3628 124.585 88.1062 124.321 87.7762 124.138C87.4535 123.947 87.0868 123.852 86.6762 123.852C86.2655 123.852 85.8952 123.947 85.5652 124.138C85.2425 124.321 84.9858 124.585 84.7952 124.93C84.6118 125.275 84.5202 125.667 84.5202 126.107C84.5202 126.547 84.6118 126.939 84.7952 127.284C84.9858 127.629 85.2425 127.896 85.5652 128.087C85.8952 128.27 86.2655 128.362 86.6762 128.362ZM97.3988 129.055C96.8268 129.055 96.3135 128.93 95.8588 128.681C95.4115 128.432 95.0595 128.083 94.8028 127.636C94.5462 127.181 94.4178 126.672 94.4178 126.107C94.4178 125.542 94.5462 125.036 94.8028 124.589C95.0595 124.142 95.4115 123.793 95.8588 123.544C96.3135 123.295 96.8268 123.17 97.3988 123.17C97.8975 123.17 98.3412 123.269 98.7298 123.467C99.1258 123.658 99.4375 123.94 99.6648 124.314L99.0818 124.71C98.8912 124.424 98.6492 124.211 98.3558 124.072C98.0625 123.925 97.7435 123.852 97.3988 123.852C96.9808 123.852 96.6032 123.947 96.2658 124.138C95.9358 124.321 95.6755 124.585 95.4848 124.93C95.3015 125.275 95.2098 125.667 95.2098 126.107C95.2098 126.554 95.3015 126.95 95.4848 127.295C95.6755 127.632 95.9358 127.896 96.2658 128.087C96.6032 128.27 96.9808 128.362 97.3988 128.362C97.7435 128.362 98.0625 128.292 98.3558 128.153C98.6492 128.014 98.8912 127.801 99.0818 127.515L99.6648 127.911C99.4375 128.285 99.1258 128.571 98.7298 128.769C98.3338 128.96 97.8902 129.055 97.3988 129.055ZM102.404 124.347C102.588 123.958 102.859 123.665 103.218 123.467C103.585 123.269 104.036 123.17 104.571 123.17V123.929L104.384 123.918C103.776 123.918 103.299 124.105 102.954 124.479C102.61 124.853 102.437 125.377 102.437 126.052V129H101.656V123.214H102.404V124.347ZM106.442 123.214H107.223V129H106.442V123.214ZM106.838 121.949C106.677 121.949 106.541 121.894 106.431 121.784C106.321 121.674 106.266 121.542 106.266 121.388C106.266 121.241 106.321 121.113 106.431 121.003C106.541 120.893 106.677 120.838 106.838 120.838C107 120.838 107.135 120.893 107.245 121.003C107.355 121.106 107.41 121.23 107.41 121.377C107.41 121.538 107.355 121.674 107.245 121.784C107.135 121.894 107 121.949 106.838 121.949ZM112.219 129.055C111.661 129.055 111.159 128.93 110.712 128.681C110.264 128.424 109.912 128.072 109.656 127.625C109.399 127.178 109.271 126.672 109.271 126.107C109.271 125.542 109.399 125.036 109.656 124.589C109.912 124.142 110.264 123.793 110.712 123.544C111.159 123.295 111.661 123.17 112.219 123.17C112.776 123.17 113.278 123.295 113.726 123.544C114.173 123.793 114.521 124.142 114.771 124.589C115.027 125.036 115.156 125.542 115.156 126.107C115.156 126.672 115.027 127.178 114.771 127.625C114.521 128.072 114.173 128.424 113.726 128.681C113.278 128.93 112.776 129.055 112.219 129.055ZM112.219 128.362C112.629 128.362 112.996 128.27 113.319 128.087C113.649 127.896 113.905 127.629 114.089 127.284C114.272 126.939 114.364 126.547 114.364 126.107C114.364 125.667 114.272 125.275 114.089 124.93C113.905 124.585 113.649 124.321 113.319 124.138C112.996 123.947 112.629 123.852 112.219 123.852C111.808 123.852 111.438 123.947 111.108 124.138C110.785 124.321 110.528 124.585 110.338 124.93C110.154 125.275 110.063 125.667 110.063 126.107C110.063 126.547 110.154 126.939 110.338 127.284C110.528 127.629 110.785 127.896 111.108 128.087C111.438 128.27 111.808 128.362 112.219 128.362ZM122.421 123.214V129H121.673V127.944C121.468 128.296 121.186 128.571 120.826 128.769C120.467 128.96 120.056 129.055 119.594 129.055C118.839 129.055 118.241 128.846 117.801 128.428C117.369 128.003 117.152 127.383 117.152 126.569V123.214H117.933V126.492C117.933 127.101 118.084 127.563 118.384 127.878C118.685 128.193 119.114 128.351 119.671 128.351C120.28 128.351 120.76 128.168 121.112 127.801C121.464 127.427 121.64 126.91 121.64 126.25V123.214H122.421ZM131.35 123.17C132.076 123.17 132.652 123.383 133.077 123.808C133.51 124.226 133.726 124.838 133.726 125.645V129H132.945V125.722C132.945 125.121 132.795 124.662 132.494 124.347C132.193 124.032 131.764 123.874 131.207 123.874C130.584 123.874 130.089 124.061 129.722 124.435C129.363 124.802 129.183 125.311 129.183 125.964V129H128.402V123.214H129.15V124.281C129.363 123.929 129.656 123.658 130.03 123.467C130.411 123.269 130.851 123.17 131.35 123.17ZM141.363 126.349H136.523C136.567 126.95 136.798 127.438 137.216 127.812C137.634 128.179 138.162 128.362 138.8 128.362C139.159 128.362 139.489 128.3 139.79 128.175C140.091 128.043 140.351 127.852 140.571 127.603L141.011 128.109C140.754 128.417 140.432 128.652 140.043 128.813C139.662 128.974 139.24 129.055 138.778 129.055C138.184 129.055 137.656 128.93 137.194 128.681C136.739 128.424 136.384 128.072 136.127 127.625C135.87 127.178 135.742 126.672 135.742 126.107C135.742 125.542 135.863 125.036 136.105 124.589C136.354 124.142 136.692 123.793 137.117 123.544C137.55 123.295 138.034 123.17 138.569 123.17C139.104 123.17 139.585 123.295 140.01 123.544C140.435 123.793 140.769 124.142 141.011 124.589C141.253 125.029 141.374 125.535 141.374 126.107L141.363 126.349ZM138.569 123.841C138.012 123.841 137.542 124.021 137.161 124.38C136.787 124.732 136.574 125.194 136.523 125.766H140.626C140.575 125.194 140.358 124.732 139.977 124.38C139.603 124.021 139.134 123.841 138.569 123.841ZM146.369 123.17C147.095 123.17 147.67 123.383 148.096 123.808C148.528 124.226 148.745 124.838 148.745 125.645V129H147.964V125.722C147.964 125.121 147.813 124.662 147.513 124.347C147.212 124.032 146.783 123.874 146.226 123.874C145.602 123.874 145.107 124.061 144.741 124.435C144.381 124.802 144.202 125.311 144.202 125.964V129H143.421V123.214H144.169V124.281C144.381 123.929 144.675 123.658 145.049 123.467C145.43 123.269 145.87 123.17 146.369 123.17ZM154.27 123.17C154.996 123.17 155.572 123.383 155.997 123.808C156.43 124.226 156.646 124.838 156.646 125.645V129H155.865V125.722C155.865 125.121 155.715 124.662 155.414 124.347C155.113 124.032 154.684 123.874 154.127 123.874C153.504 123.874 153.009 124.061 152.642 124.435C152.283 124.802 152.103 125.311 152.103 125.964V129H151.322V120.838H152.103V124.226C152.316 123.889 152.609 123.628 152.983 123.445C153.357 123.262 153.786 123.17 154.27 123.17ZM164.438 123.214V129H163.69V127.944C163.484 128.296 163.202 128.571 162.843 128.769C162.483 128.96 162.073 129.055 161.611 129.055C160.855 129.055 160.258 128.846 159.818 128.428C159.385 128.003 159.169 127.383 159.169 126.569V123.214H159.95V126.492C159.95 127.101 160.1 127.563 160.401 127.878C160.701 128.193 161.13 128.351 161.688 128.351C162.296 128.351 162.777 128.168 163.129 127.801C163.481 127.427 163.657 126.91 163.657 126.25V123.214H164.438ZM174.298 123.17C175.024 123.17 175.592 123.379 176.003 123.797C176.421 124.215 176.63 124.831 176.63 125.645V129H175.849V125.722C175.849 125.121 175.702 124.662 175.409 124.347C175.123 124.032 174.716 123.874 174.188 123.874C173.587 123.874 173.114 124.061 172.769 124.435C172.424 124.802 172.252 125.311 172.252 125.964V129H171.471V125.722C171.471 125.121 171.324 124.662 171.031 124.347C170.745 124.032 170.334 123.874 169.799 123.874C169.205 123.874 168.732 124.061 168.38 124.435C168.035 124.802 167.863 125.311 167.863 125.964V129H167.082V123.214H167.83V124.27C168.035 123.918 168.321 123.647 168.688 123.456C169.055 123.265 169.476 123.17 169.953 123.17C170.437 123.17 170.855 123.273 171.207 123.478C171.566 123.683 171.834 123.988 172.01 124.391C172.223 124.01 172.527 123.713 172.923 123.5C173.326 123.28 173.785 123.17 174.298 123.17ZM187.579 126.349H182.739C182.783 126.95 183.014 127.438 183.432 127.812C183.85 128.179 184.378 128.362 185.016 128.362C185.376 128.362 185.706 128.3 186.006 128.175C186.307 128.043 186.567 127.852 186.787 127.603L187.227 128.109C186.971 128.417 186.648 128.652 186.259 128.813C185.878 128.974 185.456 129.055 184.994 129.055C184.4 129.055 183.872 128.93 183.41 128.681C182.956 128.424 182.6 128.072 182.343 127.625C182.087 127.178 181.958 126.672 181.958 126.107C181.958 125.542 182.079 125.036 182.321 124.589C182.571 124.142 182.908 123.793 183.333 123.544C183.766 123.295 184.25 123.17 184.785 123.17C185.321 123.17 185.801 123.295 186.226 123.544C186.652 123.793 186.985 124.142 187.227 124.589C187.469 125.029 187.59 125.535 187.59 126.107L187.579 126.349ZM184.785 123.841C184.228 123.841 183.759 124.021 183.377 124.38C183.003 124.732 182.791 125.194 182.739 125.766H186.842C186.791 125.194 186.575 124.732 186.193 124.38C185.819 124.021 185.35 123.841 184.785 123.841ZM194.392 123.214L191.818 129H191.015L188.452 123.214H189.266L191.433 128.142L193.622 123.214H194.392ZM200.826 126.349H195.986C196.03 126.95 196.261 127.438 196.679 127.812C197.097 128.179 197.625 128.362 198.263 128.362C198.622 128.362 198.952 128.3 199.253 128.175C199.553 128.043 199.814 127.852 200.034 127.603L200.474 128.109C200.217 128.417 199.894 128.652 199.506 128.813C199.124 128.974 198.703 129.055 198.241 129.055C197.647 129.055 197.119 128.93 196.657 128.681C196.202 128.424 195.846 128.072 195.59 127.625C195.333 127.178 195.205 126.672 195.205 126.107C195.205 125.542 195.326 125.036 195.568 124.589C195.817 124.142 196.154 123.793 196.58 123.544C197.012 123.295 197.496 123.17 198.032 123.17C198.567 123.17 199.047 123.295 199.473 123.544C199.898 123.793 200.232 124.142 200.474 124.589C200.716 125.029 200.837 125.535 200.837 126.107L200.826 126.349ZM198.032 123.841C197.474 123.841 197.005 124.021 196.624 124.38C196.25 124.732 196.037 125.194 195.986 125.766H200.089C200.037 125.194 199.821 124.732 199.44 124.38C199.066 124.021 198.596 123.841 198.032 123.841ZM205.831 123.17C206.557 123.17 207.133 123.383 207.558 123.808C207.991 124.226 208.207 124.838 208.207 125.645V129H207.426V125.722C207.426 125.121 207.276 124.662 206.975 124.347C206.675 124.032 206.246 123.874 205.688 123.874C205.065 123.874 204.57 124.061 204.203 124.435C203.844 124.802 203.664 125.311 203.664 125.964V129H202.883V123.214H203.631V124.281C203.844 123.929 204.137 123.658 204.511 123.467C204.893 123.269 205.333 123.17 205.831 123.17ZM213.832 128.648C213.685 128.78 213.502 128.883 213.282 128.956C213.069 129.022 212.846 129.055 212.611 129.055C212.068 129.055 211.65 128.908 211.357 128.615C211.064 128.322 210.917 127.907 210.917 127.372V123.874H209.883V123.214H210.917V121.949H211.698V123.214H213.458V123.874H211.698V127.328C211.698 127.673 211.782 127.937 211.951 128.12C212.127 128.296 212.376 128.384 212.699 128.384C212.86 128.384 213.014 128.358 213.161 128.307C213.315 128.256 213.447 128.182 213.557 128.087L213.832 128.648ZM217.872 129.055C217.314 129.055 216.812 128.93 216.365 128.681C215.917 128.424 215.565 128.072 215.309 127.625C215.052 127.178 214.924 126.672 214.924 126.107C214.924 125.542 215.052 125.036 215.309 124.589C215.565 124.142 215.917 123.793 216.365 123.544C216.812 123.295 217.314 123.17 217.872 123.17C218.429 123.17 218.931 123.295 219.379 123.544C219.826 123.793 220.174 124.142 220.424 124.589C220.68 125.036 220.809 125.542 220.809 126.107C220.809 126.672 220.68 127.178 220.424 127.625C220.174 128.072 219.826 128.424 219.379 128.681C218.931 128.93 218.429 129.055 217.872 129.055ZM217.872 128.362C218.282 128.362 218.649 128.27 218.972 128.087C219.302 127.896 219.558 127.629 219.742 127.284C219.925 126.939 220.017 126.547 220.017 126.107C220.017 125.667 219.925 125.275 219.742 124.93C219.558 124.585 219.302 124.321 218.972 124.138C218.649 123.947 218.282 123.852 217.872 123.852C217.461 123.852 217.091 123.947 216.761 124.138C216.438 124.321 216.181 124.585 215.991 124.93C215.807 125.275 215.716 125.667 215.716 126.107C215.716 126.547 215.807 126.939 215.991 127.284C216.181 127.629 216.438 127.896 216.761 128.087C217.091 128.27 217.461 128.362 217.872 128.362Z" fill="#2E3033"/>
<defs>
<clipPath id="clip0_16_1031">
<rect width="106" height="104" fill="white" transform="translate(58)"/>
</clipPath>
</defs>
</svg>
